<svg id="visual" viewBox="0 0 960 150" width="960" height="150" xmlns="http://www.w3.org/2000/svg" xmlns:xlink="http://www.w3.org/1999/xlink" version="1.1"><path d="M0 108L7.7 107.5C15.3 107 30.7 106 45.8 107C61 108 76 111 91.2 115C106.3 119 121.7 124 137 127.2C152.3 130.3 167.7 131.7 183 128C198.3 124.3 213.7 115.7 228.8 113.8C244 112 259 117 274.2 117.5C289.3 118 304.7 114 320 111.5C335.3 109 350.7 108 365.8 110.2C381 112.3 396 117.7 411.2 117.8C426.3 118 441.7 113 457 110.2C472.3 107.3 487.7 106.7 503 110.8C518.3 115 533.7 124 548.8 127.7C564 131.3 579 129.7 594.2 127.2C609.3 124.7 624.7 121.3 640 120.8C655.3 120.3 670.7 122.7 685.8 124.5C701 126.3 716 127.7 731.2 127.5C746.3 127.3 761.7 125.7 777 123.3C792.3 121 807.7 118 823 116.3C838.3 114.7 853.7 114.3 868.8 114.3C884 114.3 899 114.7 914.2 117.3C929.3 120 944.7 125 952.3 127.5L960 130L960 151L952.3 151C944.7 151 929.3 151 914.2 151C899 151 884 151 868.8 151C853.7 151 838.3 151 823 151C807.7 151 792.3 151 777 151C761.7 151 746.3 151 731.2 151C716 151 701 151 685.8 151C670.7 151 655.3 151 640 151C624.7 151 609.3 151 594.2 151C579 151 564 151 548.8 151C533.7 151 518.3 151 503 151C487.7 151 472.3 151 457 151C441.7 151 426.3 151 411.2 151C396 151 381 151 365.8 151C350.7 151 335.3 151 320 151C304.7 151 289.3 151 274.2 151C259 151 244 151 228.8 151C213.7 151 198.3 151 183 151C167.7 151 152.3 151 137 151C121.7 151 106.3 151 91.2 151C76 151 61 151 45.8 151C30.7 151 15.3 151 7.7 151L0 151Z" fill="#f5dfe5" stroke-linecap="round" stroke-linejoin="miter"></path></svg>